<?xml version="1.0" standalone="no"?>
<!DOCTYPE svg PUBLIC "-//W3C//DTD SVG 20010904//EN"
 "http://www.w3.org/TR/2001/REC-SVG-20010904/DTD/svg10.dtd">
<svg version="1.0" xmlns="http://www.w3.org/2000/svg"
 width="228.000000pt" height="228.000000pt" viewBox="0 0 228.000000 228.000000"
 preserveAspectRatio="xMidYMid meet">
<metadata>
Created by potrace 1.11, written by Peter Selinger 2001-2013
</metadata>
<g transform="translate(0.000000,228.000000) scale(0.100000,-0.100000)"
fill="#000000" stroke="none">
<path d="M995 2232 c-97 -11 -251 -59 -346 -107 -37 -20 -50 -22 -56 -12 -12
19 -64 53 -92 60 -38 9 -103 -25 -143 -74 -52 -65 -53 -70 -4 -43 52 29 129
40 170 25 l28 -11 -35 -24 c-62 -42 -158 -132 -213 -199 -28 -34 -44 -44 -80
-46 -6 -1 -29 -17 -52 -37 -48 -40 -56 -82 -23 -111 18 -15 18 -19 6 -44 -21
-41 -72 -198 -80 -249 -4 -25 -9 -54 -12 -65 -11 -50 -10 -238 2 -315 19 -118
22 -130 51 -212 136 -380 446 -643 842 -715 49 -9 275 -9 332 0 141 21 339
105 451 189 189 143 316 317 392 536 14 39 24 72 22 72 -2 0 3 21 11 47 35
115 36 351 2 478 -5 22 -12 49 -14 61 -4 24 -22 74 -53 151 -15 38 -17 51 -7
47 20 -8 83 21 95 44 8 16 6 25 -9 45 -22 27 -123 80 -176 91 -22 5 -63 38
-130 105 -55 53 -121 111 -148 129 l-48 31 27 7 c37 9 120 -11 159 -38 l31
-23 -19 30 c-69 111 -160 145 -232 90 l-34 -26 -53 24 c-66 31 -166 64 -237
78 -55 11 -267 18 -325 11z"/>
</g>
</svg>
